<svg xmlns="http://www.w3.org/2000/svg" viewBox="0 0 128 128">
  <defs>
    <linearGradient id="g" x1="0" y1="0" x2="1" y2="1">
      <stop offset="0" stop-color="#4f46e5" />
      <stop offset="1" stop-color="#22c55e" />
    </linearGradient>
  </defs>
  <rect x="10" y="10" width="108" height="108" rx="24" fill="url(#g)" />
  <path
    d="M40 44h48a6 6 0 0 1 6 6v6a6 6 0 0 1-6 6H40a6 6 0 0 1-6-6v-6a6 6 0 0 1 6-6zm0 24h36a6 6 0 0 1 6 6v6a6 6 0 0 1-6 6H40a6 6 0 0 1-6-6v-6a6 6 0 0 1 6-6z"
    fill="#ffffff"
    opacity="0.92"
  />
  <path d="M84 70l10 10-10 10" fill="none" stroke="#ffffff" stroke-width="6" stroke-linecap="round" stroke-linejoin="round" />
</svg>

